<?xml version="1.0" standalone="no"?>
<svg xmlns="http://www.w3.org/2000/svg" id="svg_pipeline" viewBox="0 0 1000 500" style="width: 100%; height: auto;"><defs><marker id="arrow" viewBox="0,0,7,7" refX="7" refY="3.5" markerWidth="7" markerHeight="7" orient="auto-start-reverse" fill="#555" stroke="#555"><path d="M0,0L0,7L7,3.5"/></marker></defs><rect x="0" y="0" rx="0" ry="0" width="999.9999999999999" height="500" style="fill: rgb(32, 32, 32); stroke: rgb(32, 32, 32); stroke-width: 0px;"/><rect x="66.0377358490566" y="187.5" rx="5.66037735849055" ry="6.250000000000057" width="56.60377358490564" height="125" style="fill: rgb(51, 51, 51); stroke: rgb(70, 70, 70); stroke-width: 1px;"/><rect x="75.47169811320754" y="193.75" rx="3.7735849056603854" ry="4.166666666666657" width="37.73584905660377" height="29.166666666666686" style="fill: rgb(200, 200, 200); stroke: rgb(70, 70, 70); stroke-width: 1px;"/><rect x="75.47169811320754" y="235.41666666666669" rx="3.7735849056603854" ry="4.166666666666657" width="37.73584905660377" height="29.166666666666686" style="fill: rgb(200, 200, 200); stroke: rgb(70, 70, 70); stroke-width: 1px;"/><rect x="75.47169811320754" y="277.08333333333337" rx="3.7735849056603854" ry="4.166666666666657" width="37.73584905660377" height="29.166666666666686" style="fill: rgb(200, 200, 200); stroke: rgb(70, 70, 70); stroke-width: 1px;"/><rect x="179.24528301886792" y="125" rx="5.66037735849055" ry="6.250000000000057" width="56.60377358490564" height="250" style="fill: rgb(51, 51, 51); stroke: rgb(70, 70, 70); stroke-width: 1px;"/><rect x="188.67924528301887" y="131.25" rx="3.7735849056603854" ry="4.166666666666657" width="37.73584905660377" height="29.166666666666686" style="fill: rgb(200, 200, 200); stroke: rgb(70, 70, 70); stroke-width: 1px;"/><rect x="188.67924528301887" y="172.91666666666669" rx="3.7735849056603854" ry="4.166666666666657" width="37.73584905660377" height="29.166666666666686" style="fill: rgb(200, 200, 200); stroke: rgb(70, 70, 70); stroke-width: 1px;"/><rect x="188.67924528301887" y="214.58333333333334" rx="3.7735849056603854" ry="4.166666666666657" width="37.73584905660377" height="29.166666666666686" style="fill: rgb(200, 200, 200); stroke: rgb(70, 70, 70); stroke-width: 1px;"/><rect x="188.67924528301887" y="256.25000000000006" rx="3.7735849056603854" ry="4.166666666666657" width="37.73584905660377" height="29.166666666666686" style="fill: rgb(200, 200, 200); stroke: rgb(70, 70, 70); stroke-width: 1px;"/><rect x="188.67924528301887" y="297.9166666666667" rx="3.7735849056603854" ry="4.166666666666657" width="37.73584905660377" height="29.166666666666686" style="fill: rgb(200, 200, 200); stroke: rgb(70, 70, 70); stroke-width: 1px;"/><rect x="188.67924528301887" y="339.58333333333337" rx="3.7735849056603854" ry="4.166666666666657" width="37.73584905660377" height="29.166666666666686" style="fill: rgb(200, 200, 200); stroke: rgb(70, 70, 70); stroke-width: 1px;"/><rect x="273.58490566037733" y="131.25" rx="3.7735849056603854" ry="4.166666666666657" width="94.33962264150944" height="29.166666666666686" style="fill: rgb(200, 200, 200); stroke: rgb(70, 70, 70); stroke-width: 1px;"/><rect x="386.7924528301887" y="131.25" rx="3.7735849056603854" ry="4.166666666666657" width="94.33962264150944" height="29.166666666666686" style="fill: rgb(200, 200, 200); stroke: rgb(70, 70, 70); stroke-width: 1px;"/><rect x="500" y="131.25" rx="3.7735849056603854" ry="4.166666666666657" width="94.33962264150944" height="29.166666666666686" style="fill: rgb(200, 200, 200); stroke: rgb(70, 70, 70); stroke-width: 1px;"/><rect x="273.58490566037733" y="172.91666666666669" rx="3.7735849056603854" ry="4.166666666666657" width="94.33962264150944" height="29.166666666666686" style="fill: rgb(200, 200, 200); stroke: rgb(70, 70, 70); stroke-width: 1px;"/><rect x="386.7924528301887" y="172.91666666666669" rx="3.7735849056603854" ry="4.166666666666657" width="94.33962264150944" height="29.166666666666686" style="fill: rgb(200, 200, 200); stroke: rgb(70, 70, 70); stroke-width: 1px;"/><rect x="500" y="172.91666666666669" rx="3.7735849056603854" ry="4.166666666666657" width="94.33962264150944" height="29.166666666666686" style="fill: rgb(200, 200, 200); stroke: rgb(70, 70, 70); stroke-width: 1px;"/><rect x="273.58490566037733" y="214.58333333333334" rx="3.7735849056603854" ry="4.166666666666657" width="94.33962264150944" height="29.166666666666686" style="fill: rgb(200, 200, 200); stroke: rgb(70, 70, 70); stroke-width: 1px;"/><rect x="273.58490566037733" y="297.9166666666667" rx="3.7735849056603854" ry="4.166666666666657" width="94.33962264150944" height="29.166666666666686" style="fill: rgb(200, 200, 200); stroke: rgb(70, 70, 70); stroke-width: 1px;"/><rect x="386.7924528301887" y="297.9166666666667" rx="3.7735849056603854" ry="4.166666666666657" width="94.33962264150944" height="29.166666666666686" style="fill: rgb(200, 200, 200); stroke: rgb(70, 70, 70); stroke-width: 1px;"/><rect x="500" y="297.9166666666667" rx="3.7735849056603854" ry="4.166666666666657" width="94.33962264150944" height="29.166666666666686" style="fill: rgb(200, 200, 200); stroke: rgb(70, 70, 70); stroke-width: 1px;"/><rect x="632.0754716981132" y="166.66666666666666" rx="5.66037735849055" ry="6.250000000000057" width="56.60377358490564" height="166.66666666666669" style="fill: rgb(51, 51, 51); stroke: rgb(70, 70, 70); stroke-width: 1px;"/><rect x="641.5094339622641" y="172.91666666666669" rx="3.7735849056603854" ry="4.166666666666657" width="37.73584905660377" height="29.166666666666686" style="fill: rgb(200, 200, 200); stroke: rgb(70, 70, 70); stroke-width: 1px;"/><rect x="641.5094339622641" y="214.58333333333334" rx="3.7735849056603854" ry="4.166666666666657" width="37.73584905660377" height="29.166666666666686" style="fill: rgb(200, 200, 200); stroke: rgb(70, 70, 70); stroke-width: 1px;"/><rect x="641.5094339622641" y="256.25000000000006" rx="3.7735849056603854" ry="4.166666666666657" width="37.73584905660377" height="29.166666666666686" style="fill: rgb(200, 200, 200); stroke: rgb(70, 70, 70); stroke-width: 1px;"/><rect x="641.5094339622641" y="297.9166666666667" rx="3.7735849056603854" ry="4.166666666666657" width="37.73584905660377" height="29.166666666666686" style="fill: rgb(200, 200, 200); stroke: rgb(70, 70, 70); stroke-width: 1px;"/><rect x="726.4150943396226" y="172.91666666666669" rx="3.7735849056603854" ry="4.166666666666657" width="94.33962264150944" height="29.166666666666686" style="fill: rgb(200, 200, 200); stroke: rgb(70, 70, 70); stroke-width: 1px;"/><rect x="726.4150943396226" y="214.58333333333334" rx="3.7735849056603854" ry="4.166666666666657" width="94.33962264150944" height="29.166666666666686" style="fill: rgb(200, 200, 200); stroke: rgb(70, 70, 70); stroke-width: 1px;"/><rect x="726.4150943396226" y="256.25000000000006" rx="3.7735849056603854" ry="4.166666666666657" width="94.33962264150944" height="29.166666666666686" style="fill: rgb(200, 200, 200); stroke: rgb(70, 70, 70); stroke-width: 1px;"/><rect x="726.4150943396226" y="297.9166666666667" rx="3.7735849056603854" ry="4.166666666666657" width="94.33962264150944" height="29.166666666666686" style="fill: rgb(200, 200, 200); stroke: rgb(70, 70, 70); stroke-width: 1px;"/><rect x="858.4905660377359" y="166.66666666666666" rx="5.66037735849055" ry="6.250000000000057" width="56.60377358490564" height="166.66666666666669" style="fill: rgb(51, 51, 51); stroke: rgb(70, 70, 70); stroke-width: 1px;"/><rect x="867.9245283018868" y="172.91666666666669" rx="3.7735849056603854" ry="4.166666666666657" width="37.73584905660377" height="29.166666666666686" style="fill: rgb(200, 200, 200); stroke: rgb(70, 70, 70); stroke-width: 1px;"/><rect x="867.9245283018868" y="214.58333333333334" rx="3.7735849056603854" ry="4.166666666666657" width="37.73584905660377" height="29.166666666666686" style="fill: rgb(200, 200, 200); stroke: rgb(70, 70, 70); stroke-width: 1px;"/><rect x="867.9245283018868" y="256.25000000000006" rx="3.7735849056603854" ry="4.166666666666657" width="37.73584905660377" height="29.166666666666686" style="fill: rgb(200, 200, 200); stroke: rgb(70, 70, 70); stroke-width: 1px;"/><rect x="867.9245283018868" y="297.9166666666667" rx="3.7735849056603854" ry="4.166666666666657" width="37.73584905660377" height="29.166666666666686" style="fill: rgb(200, 200, 200); stroke: rgb(70, 70, 70); stroke-width: 1px;"/><text font-size="10.416666666666686px" fill="#ddd" style="text-anchor: middle;" transform="translate(94.33962264150944,179.16666666666666), rotate(0)" font-family="sans-serif">hw:Loopback0,1</text><text font-size="10.416666666666686px" fill="rgb(16, 10, 90)" style="text-anchor: middle;" transform="translate(94.33962264150944,212.5), rotate(0)" font-family="sans-serif">ch 0</text><text font-size="10.416666666666686px" fill="rgb(16, 10, 90)" style="text-anchor: middle;" transform="translate(94.33962264150944,254.16666666666666), rotate(0)" font-family="sans-serif">ch 1</text><text font-size="10.416666666666686px" fill="rgb(16, 10, 90)" style="text-anchor: middle;" transform="translate(94.33962264150944,295.8333333333333), rotate(0)" font-family="sans-serif">ch 2</text><text font-size="10.416666666666686px" fill="#ddd" style="text-anchor: middle;" transform="translate(207.54716981132077,116.66666666666666), rotate(0)" font-family="sans-serif">3x6</text><text font-size="10.416666666666686px" fill="rgb(16, 10, 90)" style="text-anchor: middle;" transform="translate(207.54716981132077,150), rotate(0)" font-family="sans-serif">ch 0</text><text font-size="10.416666666666686px" fill="rgb(16, 10, 90)" style="text-anchor: middle;" transform="translate(207.54716981132077,191.66666666666666), rotate(0)" font-family="sans-serif">ch 1</text><text font-size="10.416666666666686px" fill="rgb(16, 10, 90)" style="text-anchor: middle;" transform="translate(207.54716981132077,233.33333333333331), rotate(0)" font-family="sans-serif">ch 2</text><text font-size="10.416666666666686px" fill="rgb(16, 10, 90)" style="text-anchor: middle;" transform="translate(207.54716981132077,274.99999999999994), rotate(0)" font-family="sans-serif">ch 3</text><text font-size="10.416666666666686px" fill="rgb(16, 10, 90)" style="text-anchor: middle;" transform="translate(207.54716981132077,316.66666666666663), rotate(0)" font-family="sans-serif">ch 4</text><text font-size="10.416666666666686px" fill="rgb(16, 10, 90)" style="text-anchor: middle;" transform="translate(207.54716981132077,358.3333333333333), rotate(0)" font-family="sans-serif">ch 5</text><text font-size="8.333333333333371px" fill="#ddd" style="text-anchor: middle;" transform="translate(138.36477987421387,187.5), rotate(-55.3328978898684)" font-family="sans-serif">-3 dB</text><text font-size="8.333333333333371px" fill="#ddd" style="text-anchor: middle;" transform="translate(138.36477987421387,229.16666666666666), rotate(-55.3328978898684)" font-family="sans-serif">-3 dB</text><text font-size="8.333333333333371px" fill="#ddd" style="text-anchor: middle;" transform="translate(138.36477987421387,270.8333333333333), rotate(-55.3328978898684)" font-family="sans-serif">0 dB</text><text font-size="8.333333333333371px" fill="#ddd" style="text-anchor: middle;" transform="translate(163.52201257861637,277.77777777777777), rotate(77.04934835486077)" font-family="sans-serif">0 dB</text><text font-size="8.333333333333371px" fill="#ddd" style="text-anchor: middle;" transform="translate(163.52201257861637,291.6666666666667), rotate(55.3328978898684)" font-family="sans-serif">0 dB</text><text font-size="10.416666666666686px" fill="rgb(16, 10, 90)" style="text-anchor: middle;" transform="translate(320.75471698113205,150), rotate(0)" font-family="sans-serif">loudnessvol</text><text font-size="10.416666666666686px" fill="rgb(16, 10, 90)" style="text-anchor: middle;" transform="translate(433.9622641509434,150), rotate(0)" font-family="sans-serif">mainshighpass</text><text font-size="10.416666666666686px" fill="rgb(16, 10, 90)" style="text-anchor: middle;" transform="translate(547.1698113207547,150), rotate(0)" font-family="sans-serif">EQ</text><text font-size="10.416666666666686px" fill="rgb(16, 10, 90)" style="text-anchor: middle;" transform="translate(320.75471698113205,191.66666666666666), rotate(0)" font-family="sans-serif">loudnessvol</text><text font-size="10.416666666666686px" fill="rgb(16, 10, 90)" style="text-anchor: middle;" transform="translate(433.9622641509434,191.66666666666666), rotate(0)" font-family="sans-serif">mainshighpass</text><text font-size="10.416666666666686px" fill="rgb(16, 10, 90)" style="text-anchor: middle;" transform="translate(547.1698113207547,191.66666666666666), rotate(0)" font-family="sans-serif">EQ</text><text font-size="10.416666666666686px" fill="rgb(16, 10, 90)" style="text-anchor: middle;" transform="translate(320.75471698113205,233.33333333333331), rotate(0)" font-family="sans-serif">gain_lfetone</text><text font-size="10.416666666666686px" fill="rgb(16, 10, 90)" style="text-anchor: middle;" transform="translate(320.75471698113205,316.66666666666663), rotate(0)" font-family="sans-serif">loudnessvol</text><text font-size="10.416666666666686px" fill="rgb(16, 10, 90)" style="text-anchor: middle;" transform="translate(433.9622641509434,316.66666666666663), rotate(0)" font-family="sans-serif">sublowpass</text><text font-size="10.416666666666686px" fill="rgb(16, 10, 90)" style="text-anchor: middle;" transform="translate(547.1698113207547,316.66666666666663), rotate(0)" font-family="sans-serif">EQ</text><text font-size="10.416666666666686px" fill="#ddd" style="text-anchor: middle;" transform="translate(660.377358490566,158.33333333333331), rotate(0)" font-family="sans-serif">6x4</text><text font-size="10.416666666666686px" fill="rgb(16, 10, 90)" style="text-anchor: middle;" transform="translate(660.377358490566,191.66666666666666), rotate(0)" font-family="sans-serif">ch 0</text><text font-size="10.416666666666686px" fill="rgb(16, 10, 90)" style="text-anchor: middle;" transform="translate(660.377358490566,233.33333333333331), rotate(0)" font-family="sans-serif">ch 1</text><text font-size="10.416666666666686px" fill="rgb(16, 10, 90)" style="text-anchor: middle;" transform="translate(660.377358490566,274.99999999999994), rotate(0)" font-family="sans-serif">ch 2</text><text font-size="10.416666666666686px" fill="rgb(16, 10, 90)" style="text-anchor: middle;" transform="translate(660.377358490566,316.66666666666663), rotate(0)" font-family="sans-serif">ch 3</text><text font-size="8.333333333333371px" fill="#ddd" style="text-anchor: middle;" transform="translate(459.11949685534586,229.16666666666666), rotate(0)" font-family="sans-serif">0 dB</text><text font-size="8.333333333333371px" fill="#ddd" style="text-anchor: middle;" transform="translate(610.0628930817611,284.72222222222223), rotate(-87.03604875536948)" font-family="sans-serif">0 dB</text><text font-size="8.333333333333371px" fill="#ddd" style="text-anchor: middle;" transform="translate(625.7861635220125,229.16666666666666), rotate(101.12146685212946)" font-family="sans-serif">0 dB</text><text font-size="8.333333333333371px" fill="#ddd" style="text-anchor: middle;" transform="translate(625.7861635220125,270.8333333333333), rotate(101.12146685212946)" font-family="sans-serif">0 dB</text><text font-size="10.416666666666686px" fill="rgb(16, 10, 90)" style="text-anchor: middle;" transform="translate(773.5849056603774,191.66666666666666), rotate(0)" font-family="sans-serif">dcp</text><text font-size="10.416666666666686px" fill="rgb(16, 10, 90)" style="text-anchor: middle;" transform="translate(773.5849056603774,233.33333333333331), rotate(0)" font-family="sans-serif">dcp</text><text font-size="10.416666666666686px" fill="rgb(16, 10, 90)" style="text-anchor: middle;" transform="translate(773.5849056603774,274.99999999999994), rotate(0)" font-family="sans-serif">dcp</text><text font-size="10.416666666666686px" fill="rgb(16, 10, 90)" style="text-anchor: middle;" transform="translate(773.5849056603774,316.66666666666663), rotate(0)" font-family="sans-serif">dcp</text><text font-size="10.416666666666686px" fill="#ddd" style="text-anchor: middle;" transform="translate(886.7924528301887,158.33333333333331), rotate(0)" font-family="sans-serif">hw:M4</text><text font-size="10.416666666666686px" fill="rgb(16, 10, 90)" style="text-anchor: middle;" transform="translate(886.7924528301887,191.66666666666666), rotate(0)" font-family="sans-serif">ch 0</text><text font-size="10.416666666666686px" fill="rgb(16, 10, 90)" style="text-anchor: middle;" transform="translate(886.7924528301887,233.33333333333331), rotate(0)" font-family="sans-serif">ch 1</text><text font-size="10.416666666666686px" fill="rgb(16, 10, 90)" style="text-anchor: middle;" transform="translate(886.7924528301887,274.99999999999994), rotate(0)" font-family="sans-serif">ch 2</text><text font-size="10.416666666666686px" fill="rgb(16, 10, 90)" style="text-anchor: middle;" transform="translate(886.7924528301887,316.66666666666663), rotate(0)" font-family="sans-serif">ch 3</text><path d="M113.20754716981132,208.33333333333334C150.9433962264151,208.33333333333334,150.9433962264151,145.83333333333334,188.67924528301887,145.83333333333334" marker-end="url(#arrow)" fill="none" stroke="#555"/><path d="M113.20754716981132,250C150.9433962264151,250,150.9433962264151,187.5,188.67924528301887,187.5" marker-end="url(#arrow)" fill="none" stroke="#555"/><path d="M113.20754716981132,291.6666666666667C150.9433962264151,291.6666666666667,150.9433962264151,229.16666666666666,188.67924528301887,229.16666666666666" marker-end="url(#arrow)" fill="none" stroke="#555"/><path d="M113.20754716981132,208.33333333333334C150.9433962264151,208.33333333333334,150.9433962264151,312.5,188.67924528301887,312.5" marker-end="url(#arrow)" fill="none" stroke="#555"/><path d="M113.20754716981132,250C150.9433962264151,250,150.9433962264151,312.5,188.67924528301887,312.5" marker-end="url(#arrow)" fill="none" stroke="#555"/><path d="M226.41509433962264,145.83333333333334C250,145.83333333333334,250,145.83333333333334,273.58490566037733,145.83333333333334" marker-end="url(#arrow)" fill="none" stroke="#555"/><path d="M367.92452830188677,145.83333333333334C377.35849056603774,145.83333333333334,377.35849056603774,145.83333333333334,386.7924528301887,145.83333333333334" marker-end="url(#arrow)" fill="none" stroke="#555"/><path d="M481.1320754716981,145.83333333333334C490.566037735849,145.83333333333334,490.566037735849,145.83333333333334,500,145.83333333333334" marker-end="url(#arrow)" fill="none" stroke="#555"/><path d="M226.41509433962264,187.5C250,187.5,250,187.5,273.58490566037733,187.5" marker-end="url(#arrow)" fill="none" stroke="#555"/><path d="M367.92452830188677,187.5C377.35849056603774,187.5,377.35849056603774,187.5,386.7924528301887,187.5" marker-end="url(#arrow)" fill="none" stroke="#555"/><path d="M481.1320754716981,187.5C490.566037735849,187.5,490.566037735849,187.5,500,187.5" marker-end="url(#arrow)" fill="none" stroke="#555"/><path d="M226.41509433962264,229.16666666666666C250,229.16666666666666,250,229.16666666666666,273.58490566037733,229.16666666666666" marker-end="url(#arrow)" fill="none" stroke="#555"/><path d="M226.41509433962264,312.5C250,312.5,250,312.5,273.58490566037733,312.5" marker-end="url(#arrow)" fill="none" stroke="#555"/><path d="M367.92452830188677,312.5C377.35849056603774,312.5,377.35849056603774,312.5,386.7924528301887,312.5" marker-end="url(#arrow)" fill="none" stroke="#555"/><path d="M481.1320754716981,312.5C490.566037735849,312.5,490.566037735849,312.5,500,312.5" marker-end="url(#arrow)" fill="none" stroke="#555"/><path d="M367.92452830188677,229.16666666666666C504.71698113207543,229.16666666666666,504.71698113207543,229.16666666666666,641.5094339622641,229.16666666666666" marker-end="url(#arrow)" fill="none" stroke="#555"/><path d="M594.3396226415094,312.5C617.9245283018868,312.5,617.9245283018868,229.16666666666666,641.5094339622641,229.16666666666666" marker-end="url(#arrow)" fill="none" stroke="#555"/><path d="M594.3396226415094,145.83333333333334C617.9245283018868,145.83333333333334,617.9245283018868,270.8333333333333,641.5094339622641,270.8333333333333" marker-end="url(#arrow)" fill="none" stroke="#555"/><path d="M594.3396226415094,187.5C617.9245283018868,187.5,617.9245283018868,312.5,641.5094339622641,312.5" marker-end="url(#arrow)" fill="none" stroke="#555"/><path d="M679.2452830188679,187.5C702.8301886792452,187.5,702.8301886792452,187.5,726.4150943396226,187.5" marker-end="url(#arrow)" fill="none" stroke="#555"/><path d="M679.2452830188679,229.16666666666666C702.8301886792452,229.16666666666666,702.8301886792452,229.16666666666666,726.4150943396226,229.16666666666666" marker-end="url(#arrow)" fill="none" stroke="#555"/><path d="M679.2452830188679,270.8333333333333C702.8301886792452,270.8333333333333,702.8301886792452,270.8333333333333,726.4150943396226,270.8333333333333" marker-end="url(#arrow)" fill="none" stroke="#555"/><path d="M679.2452830188679,312.5C702.8301886792452,312.5,702.8301886792452,312.5,726.4150943396226,312.5" marker-end="url(#arrow)" fill="none" stroke="#555"/><path d="M820.7547169811321,187.5C844.3396226415094,187.5,844.3396226415094,187.5,867.9245283018868,187.5" marker-end="url(#arrow)" fill="none" stroke="#555"/><path d="M820.7547169811321,229.16666666666666C844.3396226415094,229.16666666666666,844.3396226415094,229.16666666666666,867.9245283018868,229.16666666666666" marker-end="url(#arrow)" fill="none" stroke="#555"/><path d="M820.7547169811321,270.8333333333333C844.3396226415094,270.8333333333333,844.3396226415094,270.8333333333333,867.9245283018868,270.8333333333333" marker-end="url(#arrow)" fill="none" stroke="#555"/><path d="M820.7547169811321,312.5C844.3396226415094,312.5,844.3396226415094,312.5,867.9245283018868,312.5" marker-end="url(#arrow)" fill="none" stroke="#555"/></svg>